# xmcd
#
# Track frame offsets: 
#        150
#        11316
#        16458
#        30755
#        40251
#        51971
#        63836
#        78464
#        89961
#        101966
#        107863
#        121434
#        132645
#        147371
#        158610
#        171776
#        180910
#        192300
#        204034
#        216001
#        228327
#        237368
#        248775
#        262318
#        276312
#        288423
#        300610
#        313973
#        327902
#
# Disc length: 4526 seconds
#
# Revision: 1
# Processed by: cddbd v1.5.2PL0 Copyright (c) Steve Scherf et al.
# Submitted via: ExactAudioCopy v1.3
#
DISCID=a511ac1d
DTITLE=Various Artist - Louisiana Hayride CD 12 (Live Dec 1958 - Nov 
DTITLE=1959)
DYEAR=2017
DGENRE=Country
TTITLE0=Jim Reeves - Have I Told You Lately
TTITLE1=Jim Reeves - According To My Heart
TTITLE2=Johnny Mathis - Lonely Night
TTITLE3=Johnny Mathis - Grin And Bear It
TTITLE4=Margie Singleton - Don't Let The Stars Get In Your Eyes
TTITLE5=Jimmy Martin - Rock Hearts
TTITLE6=Jimmy Martin - Jimmie Brown The Newsboy
TTITLE7=The Gays - Alone At The Harbor
TTITLE8=Norma Jean Beasler - The Lady And The Gambler
TTITLE9=talk about KWKH shows and closing theme
TTITLE10=Roy Acuff - I Like Mountain Music
TTITLE11=The Wilburn Brothers - Somebody's Back In Town
TTITLE12=Shot Jackson - You Can Take The Boy Out Of The Country
TTITLE13=June Webb - I Cried Again
TTITLE14=Roy Acuff - How Beautiful Heaven Must Be
TTITLE15=Don Helms - Smoke Along The Track
TTITLE16=Roy Acuff - Traveling The Highway Home
TTITLE17=Johnny Mathis - Tragic Romance
TTITLE18=Johnny Mathis - Hang Your Head In Shame
TTITLE19=Johnny Mathis and Carla Cates - Running Wild
TTITLE20=Dobber Johnson - (intro) Lost Indian
TTITLE21=Merle Kilgore - Mona Lisa
TTITLE22=Charlie Walker - I Don't Mind Saying
TTITLE23=Margie Singleton - The Eyes Of Love
TTITLE24=Margie Singleton - Jambalaya
TTITLE25=Felton Pruett - Boot Heel Drag
TTITLE26=Doug Bragg - If I Find My Dream Girl
TTITLE27=Charlie Walker - (intro ID) Tell Her Lies And Feed Her Candy
TTITLE28=Charlie Walker - I'll Catch You When You Fall
EXTD=
EXTT0=
EXTT1=
EXTT2=
EXTT3=
EXTT4=
EXTT5=
EXTT6=
EXTT7=
EXTT8=
EXTT9=
EXTT10=
EXTT11=
EXTT12=
EXTT13=
EXTT14=
EXTT15=
EXTT16=
EXTT17=
EXTT18=
EXTT19=
EXTT20=
EXTT21=
EXTT22=
EXTT23=
EXTT24=
EXTT25=
EXTT26=
EXTT27=
EXTT28=
PLAYORDER=
